<?xml version="1.0" standalone="no"?>
<!DOCTYPE svg PUBLIC "-//W3C//DTD SVG 20010904//EN"
 "http://www.w3.org/TR/2001/REC-SVG-20010904/DTD/svg10.dtd">
<svg version="1.0" xmlns="http://www.w3.org/2000/svg"
 width="300.000000pt" height="104.000000pt" viewBox="0 0 300.000000 104.000000"
 preserveAspectRatio="xMidYMid meet">
<metadata>
Created by potrace 1.10, written by Peter Selinger 2001-2011
</metadata>
<g transform="translate(0.000000,104.000000) scale(0.100000,-0.100000)"
fill="#000000" stroke="none">
<path d="M1237 942 c-36 -40 -9 -102 45 -102 29 0 58 28 58 56 0 55 -68 85
-103 46z"/>
<path d="M1663 904 c-65 -24 -135 -93 -168 -166 -36 -81 -46 -215 -21 -300 24
-82 71 -146 135 -182 46 -25 68 -31 140 -34 84 -3 87 -3 145 32 63 39 76 39
76 0 0 -14 6 -24 15 -24 12 0 15 24 17 133 3 128 4 132 26 135 12 2 22 8 22
13 0 5 -53 9 -120 9 -73 0 -120 -4 -120 -10 0 -5 13 -10 28 -10 53 0 66 -20
70 -108 5 -93 -5 -118 -53 -138 -77 -32 -176 -12 -229 46 -103 114 -96 430 12
543 39 42 75 57 129 57 113 -1 183 -67 205 -194 2 -11 9 -21 16 -24 9 -3 12
24 12 112 0 111 -11 149 -25 86 -4 -16 -10 -30 -15 -30 -5 0 -32 15 -61 32
-44 28 -62 33 -123 35 -45 2 -87 -3 -113 -13z m-146 -344 c1 -51 -3 -87 -8
-84 -14 8 -9 174 5 174 2 0 3 -40 3 -90z"/>
<path d="M100 893 c0 -6 14 -13 32 -15 25 -2 34 -9 39 -28 9 -33 9 -527 0
-560 -4 -16 -17 -28 -39 -34 -61 -17 -32 -26 88 -26 114 0 155 11 90 24 -42 8
-50 36 -50 177 l0 119 64 0 c96 0 109 -15 146 -165 23 -96 34 -125 55 -142 37
-32 94 -31 134 3 38 31 31 52 -8 23 -35 -26 -58 -16 -70 30 -6 20 -17 65 -26
101 -9 35 -23 76 -30 91 -14 27 -68 59 -102 60 -10 0 5 9 34 20 109 42 158
142 113 233 -17 37 -32 50 -78 73 -55 27 -62 28 -224 28 -123 0 -168 -3 -168
-12z m332 -29 c40 -21 58 -63 58 -137 0 -111 -49 -155 -172 -156 l-58 -1 0
119 c0 145 6 180 34 192 26 11 102 2 138 -17z m-209 -327 c-8 -18 -10 -12 -10
28 0 45 1 47 10 22 6 -19 6 -37 0 -50z"/>
<path d="M894 732 l-20 -47 46 0 46 0 -20 47 c-12 26 -23 48 -26 48 -3 0 -14
-22 -26 -48z"/>
<path d="M2254 731 c-50 -13 -103 -50 -110 -77 -15 -59 26 -101 75 -74 30 15
29 72 -1 92 l-22 15 22 12 c13 7 46 12 75 13 72 0 89 -22 85 -111 -3 -64 -4
-66 -38 -84 -19 -9 -62 -27 -94 -38 -33 -12 -75 -36 -93 -53 -30 -27 -35 -38
-35 -79 -1 -61 24 -97 79 -115 53 -17 115 -2 155 39 16 16 31 29 33 29 1 0 5
-13 8 -29 5 -22 14 -32 40 -40 34 -11 51 -9 95 12 33 16 27 27 -15 24 l-38 -2
-5 190 c-5 204 -10 225 -63 259 -28 18 -112 28 -153 17z m128 -308 c-4 -105
-11 -122 -64 -149 -39 -20 -66 -17 -93 11 -18 17 -25 35 -25 64 0 52 31 88
109 125 34 17 61 33 61 38 0 4 3 8 8 8 4 0 6 -44 4 -97z"/>
<path d="M2840 729 c-35 -14 -70 -49 -86 -84 -13 -29 -13 -29 -14 29 0 56 -1
58 -22 52 -13 -3 -49 -6 -80 -6 -32 0 -58 -4 -58 -10 0 -5 8 -10 18 -10 11 0
26 -8 35 -18 15 -16 17 -46 17 -208 0 -104 -4 -194 -8 -201 -4 -6 -20 -15 -35
-18 -59 -15 -21 -24 103 -24 124 -1 166 9 98 23 -64 13 -68 24 -68 180 0 115
4 148 19 181 22 49 74 95 107 95 28 0 30 -6 9 -26 -37 -38 -2 -93 51 -80 51
13 43 99 -11 122 -39 16 -41 16 -75 3z m-131 -126 c1 -13 -3 -23 -9 -23 -5 0
-10 21 -9 48 1 38 2 42 9 22 4 -14 8 -35 9 -47z"/>
<path d="M1238 723 c-71 -4 -89 -16 -38 -26 46 -10 53 -55 48 -307 -4 -254
-12 -279 -86 -312 -50 -22 -49 -33 1 -24 56 10 111 57 138 117 23 52 24 65 27
307 3 205 1 252 -10 250 -7 -1 -43 -3 -80 -5z"/>
<path d="M734 688 c2 -7 10 -30 17 -51 l12 -38 30 33 c17 18 29 35 27 38 -5 6
-71 30 -83 30 -5 0 -6 -6 -3 -12z"/>
<path d="M1054 686 c-17 -6 -31 -14 -32 -18 0 -4 12 -21 28 -38 l28 -30 16 47
c9 25 16 48 16 50 0 5 -24 1 -56 -11z"/>
<path d="M870 649 c-38 -15 -78 -58 -91 -96 -35 -106 70 -213 180 -183 48 13
97 66 106 114 21 107 -95 205 -195 165z m100 -44 c33 -17 60 -61 60 -97 0 -13
-9 -36 -19 -52 -37 -56 -93 -70 -147 -37 -67 41 -70 135 -5 178 40 27 71 29
111 8z"/>
<path d="M693 536 c-24 -11 -43 -23 -43 -26 0 -3 22 -14 48 -26 l47 -20 0 48
c0 26 -2 47 -5 46 -3 0 -24 -10 -47 -22z"/>
<path d="M1095 510 c0 -27 2 -49 5 -47 3 2 24 12 47 23 24 10 43 22 43 25 0 3
-19 14 -42 24 -24 10 -45 20 -48 22 -3 2 -5 -19 -5 -47z"/>
<path d="M737 381 c-9 -27 -17 -51 -17 -54 0 -8 87 27 88 35 1 4 -11 21 -26
37 l-27 31 -18 -49z"/>
<path d="M1043 380 l-33 -29 47 -21 c25 -11 47 -19 49 -18 5 5 -19 98 -25 98
-3 0 -21 -14 -38 -30z"/>
<path d="M892 295 c12 -25 25 -45 28 -45 3 0 16 20 28 45 l22 45 -50 0 -50 0
22 -45z"/>
</g>
</svg>
