<svg version="1.1" id="Layer_1" xmlns="http://www.w3.org/2000/svg" xmlns:xlink="http://www.w3.org/1999/xlink" x="0px" y="0px"
	 width="100%" viewBox="0 0 1007 349" enable-background="new 0 0 1007 349" xml:space="preserve">
<path fill="#FEFEFE" opacity="1.000000" stroke="none" 
	d="
M387.000000,350.000000 
	C258.353638,350.000000 129.707260,350.000000 1.030450,350.000000 
	C1.030450,233.705322 1.030450,117.410645 1.030450,1.057982 
	C336.575043,1.057982 672.150085,1.057982 1007.862549,1.057982 
	C1007.862549,117.223221 1007.862549,233.446671 1007.862549,350.000000 
	C807.641907,350.000000 607.283569,350.000000 406.516571,349.651337 
	C408.813110,347.829712 411.507965,346.337250 414.225311,344.886902 
	C432.113922,335.338745 443.396912,320.374054 450.296875,301.592834 
	C458.055176,280.475220 458.423553,258.319244 458.763580,236.400192 
	C459.310333,201.155701 458.504456,165.884399 457.855255,130.632050 
	C457.723938,123.500298 455.698975,116.430954 447.957520,112.562675 
	C447.864258,109.543564 447.864258,106.960022 447.864258,103.884682 
	C430.112366,109.635170 412.503540,108.406662 394.867523,107.774284 
	C394.867523,110.146126 394.867523,112.044472 394.867523,114.057564 
	C397.426605,114.457550 399.707306,114.814018 401.942627,115.518303 
	C400.935425,117.387970 399.777374,118.821846 399.048523,120.448105 
	C396.820831,125.418732 398.352539,129.893295 401.389862,133.940643 
	C407.831970,142.524841 410.180511,152.099564 410.109131,162.817703 
	C409.842072,202.905792 410.055908,242.996902 409.929626,283.086395 
	C409.914642,287.838623 409.277069,292.664978 408.285553,297.320129 
	C406.811493,304.241089 404.764221,311.039948 402.818359,318.201660 
	C396.132599,324.703949 387.962616,327.137024 379.396057,328.172302 
	C379.396057,329.861053 379.396057,331.120178 379.396057,332.529449 
	C381.091431,332.677094 382.546936,332.803864 383.961853,333.316254 
	C381.543945,338.884888 381.029663,343.743103 386.139374,347.789398 
	C386.674316,348.212952 386.724762,349.248413 387.000000,350.000000 
M409.529907,43.099873 
	C408.325928,44.132671 406.755524,44.943592 405.974915,46.232750 
	C398.588715,58.430923 402.521912,75.124908 414.518707,83.014175 
	C426.148193,90.661880 439.788727,90.055321 450.068542,80.073410 
	C458.063477,72.310135 462.313263,59.564095 454.650726,46.490616 
	C453.813049,45.061405 451.855713,44.288425 450.090698,42.623398 
	C446.248596,32.305321 438.407043,26.903362 428.587830,27.796501 
	C418.945740,28.673529 413.662048,34.755386 409.529907,43.099873 
M517.000000,77.000305 
	C517.000000,77.000305 517.016724,77.009689 516.282959,77.007767 
	C514.774597,77.919266 512.961670,78.546661 511.805084,79.786354 
	C500.636810,91.756668 493.124512,105.926590 487.854645,121.266655 
	C479.625031,145.222214 478.553711,169.909058 480.930389,194.918900 
	C483.359650,220.481903 491.499329,243.578491 508.507782,263.349823 
	C519.057983,275.613800 531.777344,284.341797 546.637207,290.391083 
	C563.243347,297.151154 580.598022,297.436981 598.092529,297.011688 
	C609.153564,296.742767 619.818848,294.746246 629.893494,290.043701 
	C639.646301,285.491394 649.166992,282.323059 660.506348,285.620575 
	C671.034729,288.682343 677.879089,283.581787 680.096985,272.764893 
	C681.350098,266.653717 681.755188,260.306183 681.921875,254.048615 
	C682.205566,243.397476 681.719360,232.722610 682.125488,222.079422 
	C682.311768,217.196136 683.045959,212.022430 684.941284,207.582123 
	C688.605591,198.997986 691.094727,190.736053 686.648743,181.441528 
	C686.875000,179.530304 687.101196,177.619080 687.338318,175.616180 
	C660.998169,175.616180 635.156616,175.616180 609.265869,175.616180 
	C609.265869,177.563065 609.265869,179.437134 609.265869,181.432785 
	C612.396851,181.702057 615.193176,181.942551 617.981873,182.904892 
	C613.403564,193.900879 613.259338,194.051453 622.640381,203.038544 
	C629.174255,209.297958 632.179016,216.724548 632.008423,225.639374 
	C631.783997,237.362152 631.620117,249.086121 630.922058,261.219116 
	C617.000671,270.437866 601.617126,271.733612 585.604492,269.550934 
	C574.838074,268.083282 564.599548,265.192322 555.898376,257.551666 
	C553.488281,253.805588 551.001099,250.106552 548.681335,246.305359 
	C538.341980,229.363052 535.365173,210.304337 534.230896,191.097046 
	C533.391113,176.876923 534.132629,162.495514 535.122375,148.252167 
	C536.400085,129.864578 541.103210,112.273407 550.867859,96.385963 
	C557.335449,85.862953 565.773193,77.344963 577.161926,72.079933 
	C594.784668,63.932968 611.022217,68.974274 626.344238,78.067764 
	C637.725708,84.822563 643.500366,96.113449 647.736084,108.342178 
	C650.058777,115.047783 652.563477,121.872330 656.280945,127.836166 
	C658.142822,130.823120 662.688660,132.966171 666.400696,133.801300 
	C674.575195,135.640381 679.574585,127.978149 680.861389,120.609909 
	C681.909668,114.607704 682.014038,108.397675 682.074036,102.275261 
	C682.182556,91.197922 682.488770,80.073929 681.610840,69.057205 
	C681.207031,63.990662 678.825073,58.659843 672.518494,56.032589 
	C672.518494,52.749653 672.518494,49.466717 672.518494,46.149311 
	C670.186096,46.149311 667.953430,46.149311 665.906250,46.149311 
	C664.778442,51.006042 664.093384,55.638878 662.594604,59.991493 
	C660.638550,65.672127 657.638367,66.441002 652.688660,63.140144 
	C649.230713,60.834084 645.772705,58.524803 642.378540,56.126713 
	C620.333740,40.551544 595.926392,38.509357 570.362061,43.771912 
	C549.908142,47.982468 533.466370,59.140877 518.625000,74.134476 
	C518.086731,75.095490 517.548523,76.056496 517.000000,77.000305 
M932.990845,261.149445 
	C929.023926,251.919250 928.881226,242.175003 928.969727,232.361725 
	C929.083801,219.711487 929.024231,207.059357 928.990723,194.408188 
	C928.950745,179.311935 932.080383,164.782959 937.352051,150.755264 
	C938.773743,146.972305 940.484802,142.324875 945.830566,142.043655 
	C951.048584,141.769196 951.937744,146.367233 953.857422,149.711365 
	C954.601685,151.007980 954.976440,152.584305 955.924927,153.683517 
	C958.810852,157.028397 961.356750,161.105270 965.000793,163.275925 
	C976.346375,170.034134 988.818420,167.950241 996.617554,157.657104 
	C1005.414368,146.047409 1004.782959,134.561264 997.274170,123.016701 
	C996.904114,122.447739 995.849487,122.323959 994.783386,121.355072 
	C989.254272,108.134109 976.724915,101.267883 962.116394,103.326797 
	C946.933167,105.466705 937.430664,115.505943 928.234802,126.901413 
	C925.598938,125.256035 922.963074,123.610657 920.173096,121.045540 
	C920.173096,115.481911 920.173096,109.918282 920.173096,103.928116 
	C902.396240,109.609688 884.824463,108.463646 867.007385,107.702141 
	C867.007385,110.052811 867.007385,112.018158 866.692566,114.615219 
	C861.441589,120.402504 861.529846,128.088440 866.704773,134.240189 
	C871.580933,140.036697 877.055054,145.555511 877.742554,153.732635 
	C878.199097,159.162170 878.895874,164.595108 878.942627,170.031174 
	C879.095520,187.810699 878.994446,205.592377 879.001709,223.373215 
	C879.007446,237.578552 879.827148,251.898544 872.312988,265.449677 
	C870.485413,265.965179 868.657776,266.480682 866.004272,266.998230 
	C862.671997,266.061005 859.339661,265.123749 856.455383,263.643768 
	C855.789673,261.658966 855.124023,259.674194 854.560486,257.994019 
	C850.302002,259.930176 846.783142,261.530029 842.638367,262.735809 
	C838.221130,256.719513 838.206726,249.531418 838.124146,242.692032 
	C837.814331,217.032822 838.024658,191.367584 837.987854,165.704681 
	C837.973206,155.469421 836.065552,145.547501 831.800232,136.252121 
	C830.538818,133.503143 827.848267,131.409988 825.324890,128.530334 
	C819.905640,115.571068 810.003967,107.709023 796.512390,105.075508 
	C770.957947,100.087341 747.052002,103.704132 725.926270,119.967865 
	C725.209656,119.914726 724.301880,119.549103 723.804077,119.853638 
	C706.580505,130.390152 701.742004,154.804138 713.124084,169.768387 
	C721.296326,180.512726 736.248108,183.140610 746.655823,179.571548 
	C756.546753,176.179672 765.936890,164.524765 765.037109,152.025894 
	C764.798889,148.716003 764.793457,145.354462 765.074158,142.050018 
	C765.538635,136.581772 767.702576,134.144302 772.547913,135.231003 
	C776.268311,136.065414 780.743591,138.181824 782.686096,141.160736 
	C785.321777,145.202789 786.112915,150.554657 787.235535,155.450134 
	C788.775146,162.164032 787.306580,168.511826 784.031616,174.523407 
	C783.190186,176.067825 782.779663,177.846954 781.572083,179.905029 
	C778.269531,181.000732 774.966492,182.095001 771.664490,183.192352 
	C755.649658,188.514542 739.343933,193.160431 724.539368,203.061020 
	C721.068604,205.165207 717.084351,206.731552 714.217712,209.468506 
	C702.993713,220.184799 698.504272,233.574326 698.920471,249.040268 
	C699.458313,269.027039 708.357300,283.922241 725.958618,292.809082 
	C744.898804,302.371765 764.383606,301.102112 782.850403,291.322937 
	C791.156006,286.924744 797.486206,287.547333 805.315369,292.330688 
	C818.651123,300.478302 833.323425,300.793091 847.282593,294.080841 
	C855.774536,289.997437 863.369873,289.578125 871.813660,293.247986 
	C875.381714,294.798706 879.473450,295.820648 883.345520,295.879791 
	C901.168762,296.152008 919.014282,296.421204 936.816650,295.753662 
	C942.473145,295.541504 948.512207,293.287415 953.496582,290.432129 
	C960.025879,286.691864 959.616028,275.558563 953.878845,271.964813 
	C953.878845,270.017914 953.878845,268.071014 953.878845,266.964691 
	C946.647034,265.214417 939.826477,263.563690 932.990845,261.149445 
M174.010757,179.191223 
	C175.489929,175.811066 176.366226,171.951569 178.585785,169.160095 
	C182.151917,164.675095 186.902084,161.148758 190.633881,156.775284 
	C207.192276,137.369812 211.390579,115.462608 202.492020,91.521210 
	C200.894180,87.222328 196.890442,83.817673 193.494980,79.533707 
	C187.929016,68.605392 179.342484,60.827675 168.441574,55.435753 
	C151.527557,47.069576 133.364594,45.889767 114.956032,46.049461 
	C97.001495,46.205215 79.046761,46.346161 61.091873,46.451099 
	C52.166580,46.503265 43.240730,46.460171 34.300541,46.460171 
	C34.300541,48.243656 34.300541,50.125660 34.300541,51.838470 
	C37.082836,52.277641 39.539200,52.665363 41.919559,53.760521 
	C37.180283,59.426506 37.069435,65.538742 41.715687,70.917747 
	C49.167530,79.544785 51.136486,89.438316 51.084167,100.437431 
	C50.884438,142.425293 51.037399,184.414719 50.982838,226.403458 
	C50.966488,238.986618 52.134453,251.684082 47.271988,264.324249 
	C42.933361,265.027985 38.594730,265.731750 34.273151,266.432739 
	C34.273151,268.422760 34.273151,270.304993 34.273151,272.174530 
	C35.694912,272.256409 36.836147,272.322144 37.975777,273.179138 
	C36.120533,284.127716 38.776909,289.369537 47.672150,290.855774 
	C54.498402,291.996338 61.454632,292.771942 68.366417,292.883759 
	C77.137871,293.025696 85.950371,292.658539 94.695480,291.921448 
	C107.526550,290.839935 115.031738,287.365112 111.036240,273.383484 
	C110.948204,273.075439 111.023384,272.720795 111.858543,272.215515 
	C118.030388,272.855530 114.829170,268.705536 115.234558,266.475464 
	C110.882118,265.712524 106.882172,265.011353 102.937744,263.480743 
	C101.959930,259.300507 100.215797,255.134430 100.138199,250.937531 
	C99.818192,233.629227 99.824966,216.308990 100.074966,198.998398 
	C100.210457,189.616837 107.907364,183.481583 116.795761,185.143463 
	C129.076401,187.439590 137.932770,193.933777 141.200256,206.418579 
	C145.976135,224.666702 149.969376,243.130981 155.155853,261.257172 
	C160.543900,280.087769 170.931885,294.099792 192.246552,297.410828 
	C204.681107,299.342407 221.471878,293.524078 227.908691,282.704468 
	C231.789017,276.182007 230.983978,270.581238 225.052551,265.288116 
	C227.265228,262.446564 229.477905,259.604980 231.862549,256.542572 
	C230.073807,255.263931 228.669769,254.260300 227.171143,253.189041 
	C224.802551,255.723938 222.931137,258.331665 220.484879,260.177582 
	C217.951126,262.089508 214.859985,263.262756 211.918442,264.099579 
	C208.965714,259.234314 205.221222,254.665924 203.257980,249.429672 
	C200.727936,242.681625 199.870590,235.327408 197.853027,228.361664 
	C194.142120,215.549698 191.699799,202.203796 183.575211,191.105392 
	C182.559464,189.717880 180.609390,189.014343 178.595795,187.518906 
	C177.063477,185.013657 175.531143,182.508392 174.010757,179.191223 
M266.688263,153.246658 
	C266.287811,154.155777 265.925446,155.083954 265.481262,155.971176 
	C256.498810,173.913162 257.657104,191.586761 269.170868,207.596588 
	C285.071930,229.706848 312.917419,234.865097 336.199341,220.606522 
	C354.524658,209.383514 363.713196,187.385559 357.280701,164.894394 
	C351.712952,145.426620 338.423401,133.296158 319.208099,129.788513 
	C298.491394,126.006813 280.671387,132.230988 266.688263,153.246658 
M272.344452,230.721313 
	C273.809509,230.026398 275.274567,229.331467 276.784851,228.615097 
	C269.263184,221.010941 261.951599,213.619202 254.285080,205.868637 
	C250.333755,217.164581 246.412766,228.373779 242.078018,240.765839 
	C252.747086,237.225708 262.188293,234.093002 272.344452,230.721313 
M319.327179,106.912254 
	C316.380737,100.943542 313.434296,94.974831 309.742737,87.496727 
	C303.811737,99.580925 298.598816,110.202026 293.405396,120.783394 
	C304.575104,120.783394 315.015808,120.783394 325.946259,120.783394 
	C323.907318,116.404030 321.837585,111.958580 319.327179,106.912254 
M398.158936,180.766312 
	C400.579071,179.890808 401.202789,178.398895 398.713898,177.137802 
	C388.725800,172.076904 378.632629,167.223373 368.837708,162.420395 
	C368.837708,173.356995 368.837708,183.812851 368.837708,194.913986 
	C378.596527,190.227402 388.082275,185.671951 398.158936,180.766312 
M295.184265,235.371719 
	C294.969513,236.322083 294.283936,237.493851 294.611023,238.189392 
	C299.057220,247.644073 303.625000,257.041992 308.239868,266.415985 
	C308.533051,267.011444 309.461121,267.294342 310.569275,268.044556 
	C315.858337,257.070648 320.986115,246.431396 326.200653,235.612152 
	C315.677673,235.612152 305.786011,235.612152 295.184265,235.371719 
M233.089615,186.146820 
	C238.961304,189.014664 244.832977,191.882507 250.690826,194.743591 
	C250.690826,183.683319 250.690826,173.191574 250.690826,162.285553 
	C239.843796,167.664352 229.197479,172.943619 217.442841,178.772491 
	C223.464661,181.608337 227.939072,183.715469 233.089615,186.146820 
M362.897430,211.231110 
	C355.495819,218.429581 348.094208,225.628052 340.663025,232.855270 
	C350.858307,237.095016 361.784210,241.638596 373.952179,246.698685 
	C372.854218,242.430405 372.286560,239.890610 371.545410,237.402496 
	C368.915985,228.575150 366.227386,219.765442 362.897430,211.231110 
M256.873474,146.520065 
	C257.884796,150.826401 259.316864,147.497437 260.184967,146.566910 
	C264.796783,141.623581 269.165314,136.448746 273.873169,131.601837 
	C275.808380,129.609451 278.382172,128.237305 281.511963,125.969765 
	C269.236359,121.801537 258.073822,118.011253 245.375916,113.699631 
	C249.478729,125.469101 253.031189,135.659821 256.873474,146.520065 
M343.587769,129.790344 
	C350.278717,135.401276 356.969666,141.012222 363.164001,146.206711 
	C366.197540,137.510590 370.081268,126.377197 373.965027,115.243797 
	C373.490906,114.965698 373.016785,114.687607 372.542664,114.409508 
	C361.409149,118.174767 350.275635,121.940033 338.203217,126.022835 
	C340.381470,127.589180 341.675903,128.520004 343.587769,129.790344 
z"/>
<path fill="#F9F9F9" opacity="1.000000" stroke="none" 
	d="
M448.050781,112.998253 
	C455.698975,116.430954 457.723938,123.500298 457.855255,130.632050 
	C458.504456,165.884399 459.310333,201.155701 458.763580,236.400192 
	C458.423553,258.319244 458.055176,280.475220 450.296875,301.592834 
	C443.396912,320.374054 432.113922,335.338745 414.225311,344.886902 
	C411.507965,346.337250 408.813110,347.829712 406.053925,349.651337 
	C399.978851,350.000000 393.957703,350.000000 387.468262,350.000000 
	C386.724762,349.248413 386.674316,348.212952 386.139374,347.789398 
	C381.029663,343.743103 381.543945,338.884888 384.337036,333.174500 
	C389.501953,331.757263 394.251068,330.867401 399.000061,330.400665 
	C398.025818,337.692444 401.628967,339.284363 409.580200,337.540009 
	C420.173035,335.216156 427.802216,328.143890 434.034027,319.767670 
	C446.818115,302.584473 451.326416,282.343475 451.736908,261.694000 
	C452.593353,218.606812 452.070953,175.490356 451.828949,132.387512 
	C451.813202,129.584381 449.368042,126.794907 447.959106,123.548981 
	C447.927094,119.732010 447.988953,116.365135 448.050781,112.998253 
z"/>
<path fill="#353535" opacity="1.000000" stroke="none" 
	d="
M41.995567,53.053089 
	C39.539200,52.665363 37.082836,52.277641 34.300541,51.838470 
	C34.300541,50.125660 34.300541,48.243656 34.300541,46.460171 
	C43.240730,46.460171 52.166580,46.503265 61.091873,46.451099 
	C79.046761,46.346161 97.001495,46.205215 114.956032,46.049461 
	C133.364594,45.889767 151.527557,47.069576 168.441574,55.435753 
	C179.342484,60.827675 187.929016,68.605392 193.757187,80.144737 
	C195.010559,83.729958 196.174896,86.659111 196.961990,89.686356 
	C199.900055,100.986259 198.084351,112.003105 194.465347,123.115326 
	C184.027283,147.845291 163.235062,157.890167 139.035858,163.245667 
	C146.211151,165.319275 153.049652,167.295547 160.106934,169.532104 
	C164.883438,173.195969 169.441132,176.599548 173.998825,180.003143 
	C175.531143,182.508392 177.063477,185.013657 178.879913,188.116943 
	C182.435760,199.844574 185.801758,210.947540 188.952713,222.111206 
	C192.107300,233.287720 194.680664,244.641678 198.205215,255.695816 
	C200.703537,263.531403 204.557083,265.527740 212.012650,264.759094 
	C214.859985,263.262756 217.951126,262.089508 220.484879,260.177582 
	C222.931137,258.331665 224.802551,255.723938 227.171143,253.189041 
	C228.669769,254.260300 230.073807,255.263931 231.862549,256.542572 
	C229.477905,259.604980 227.265228,262.446564 224.633606,265.739136 
	C220.143936,269.139862 216.073196,272.089600 211.601898,275.024292 
	C188.416977,281.664459 171.165115,272.094879 165.122452,249.275040 
	C163.169647,241.900421 161.826035,234.365402 159.909531,226.980087 
	C156.082001,212.230621 152.500885,197.391739 147.912750,182.875916 
	C145.648438,175.712219 140.737778,169.798874 132.625549,167.056213 
	C120.846245,166.303879 109.426231,165.736862 97.554993,165.094727 
	C94.822075,165.019608 92.540405,165.019608 90.150650,165.019608 
	C90.150650,193.403992 90.067566,221.332977 90.272263,249.259857 
	C90.294014,252.228058 92.000763,255.183914 92.995804,258.481720 
	C96.337936,260.648682 99.610077,262.479462 102.882217,264.310211 
	C106.882172,265.011353 110.882118,265.712524 115.234558,266.475464 
	C114.829170,268.705536 118.030388,272.855530 110.984726,272.179413 
	C104.408340,272.117981 98.705765,272.092651 92.542801,271.969849 
	C80.054008,271.936798 68.025627,272.001251 55.536789,271.976013 
	C49.376686,272.053528 43.677036,272.220703 37.977383,272.387878 
	C36.836147,272.322144 35.694912,272.256409 34.273151,272.174530 
	C34.273151,270.304993 34.273151,268.422760 34.273151,266.432739 
	C38.594730,265.731750 42.933361,265.027985 48.002068,264.173859 
	C53.967213,262.817932 57.263794,259.555267 58.188217,254.319946 
	C58.992977,249.762375 59.747566,245.117569 59.756496,240.509811 
	C59.860672,186.768417 59.832748,133.026703 59.786938,79.285126 
	C59.783829,75.638847 59.522903,71.973351 59.095722,68.350533 
	C57.826969,57.590599 53.197639,53.514362 41.995567,53.053089 
M166.393784,102.102898 
	C166.249680,99.797485 166.246704,97.472969 165.937592,95.189903 
	C164.414597,83.941681 161.627075,73.212517 152.739716,64.367325 
	C150.028732,62.509472 147.317764,60.651619 144.132019,58.201275 
	C131.035431,52.165859 117.273468,50.821598 103.250565,53.272240 
	C99.903236,53.857220 96.971855,56.822296 93.240540,59.115456 
	C92.181053,63.088081 90.249817,67.050240 90.201973,71.035011 
	C89.863197,99.249115 89.925758,127.467918 89.808357,155.685013 
	C89.798042,158.164001 90.574638,159.145538 93.845749,158.407410 
	C95.229828,158.325150 96.613907,158.242905 98.845322,158.415085 
	C100.894615,158.330154 102.943916,158.245224 105.904030,158.410858 
	C111.198631,158.270996 116.607697,158.766449 121.760254,157.838165 
	C128.975327,156.538300 135.999329,154.177933 143.808853,152.140518 
	C150.463257,149.138474 155.359482,144.252197 159.550995,137.575638 
	C160.857346,134.102982 162.163712,130.630310 163.873123,126.510834 
	C164.631226,118.672241 165.389328,110.833656 166.393784,102.102898 
z"/>
<path fill="#353535" opacity="1.000000" stroke="none" 
	d="
M519.375427,74.142044 
	C533.466370,59.140877 549.908142,47.982468 570.362061,43.771912 
	C595.926392,38.509357 620.333740,40.551544 642.378540,56.126713 
	C645.772705,58.524803 649.230713,60.834084 652.688660,63.140144 
	C657.638367,66.441002 660.638550,65.672127 662.594604,59.991493 
	C664.093384,55.638878 664.778442,51.006042 665.906250,46.149311 
	C667.953430,46.149311 670.186096,46.149311 672.518494,46.149311 
	C672.518494,49.466717 672.518494,52.749653 672.445190,56.855736 
	C672.302856,63.117184 672.233765,68.555489 672.083130,74.456596 
	C672.002991,86.279663 672.004395,97.639931 671.906921,109.449295 
	C671.808044,112.942810 671.808044,115.987221 671.808044,119.170822 
	C667.984680,119.414970 664.320312,121.077583 663.301819,115.538216 
	C661.745239,107.639725 660.474243,100.089371 658.512878,92.722816 
	C656.236938,84.174355 652.741211,76.125771 645.912964,69.613312 
	C636.296448,58.625557 624.269592,52.333797 610.504150,49.201813 
	C590.698120,44.695442 572.240967,46.778309 556.063110,60.881073 
	C550.526062,67.406731 544.484680,73.316689 540.182129,80.298225 
	C529.862183,97.043976 525.538269,115.872749 523.665222,135.246155 
	C521.704285,155.529434 521.674927,175.814362 524.969238,196.411377 
	C526.619629,204.909576 527.757751,213.168900 530.148499,221.048141 
	C534.716431,236.102829 542.068054,249.502121 555.886536,258.290771 
	C564.599548,265.192322 574.838074,268.083282 585.604492,269.550934 
	C601.617126,271.733612 617.000671,270.437866 631.503662,260.881622 
	C636.970398,257.209290 640.781433,252.971878 640.839722,246.795578 
	C640.979370,231.986893 641.488770,217.126709 640.499329,202.377853 
	C639.518433,187.755966 632.928528,182.593018 617.989502,182.183044 
	C615.193176,181.942551 612.396851,181.702057 609.265869,181.432785 
	C609.265869,179.437134 609.265869,177.563065 609.265869,175.616180 
	C635.156616,175.616180 660.998169,175.616180 687.338318,175.616180 
	C687.101196,177.619080 686.875000,179.530304 685.914429,181.616302 
	C680.898743,182.361526 676.484009,182.643738 673.653442,187.226242 
	C672.865784,189.385529 671.963318,191.298767 671.937988,193.223557 
	C671.605530,218.482941 671.396912,243.743973 671.084595,269.385071 
	C671.578491,273.280182 668.668945,272.259155 666.650269,272.707550 
	C665.138062,269.715363 663.967529,266.862091 662.816040,263.641357 
	C659.612061,253.100937 655.976562,251.885727 647.429810,258.156372 
	C646.788452,258.626923 646.288635,259.290344 645.395935,259.946716 
	C641.329590,262.491211 637.590332,264.953064 633.504822,267.551270 
	C623.907410,272.426117 614.232910,276.188568 603.770691,276.256683 
	C592.183533,276.332153 580.590149,275.442902 568.684814,274.759827 
	C559.913147,271.698059 551.456238,268.850250 542.793335,265.729431 
	C539.202820,263.392487 535.740784,261.444641 532.447205,259.244568 
	C518.119263,249.673660 508.609100,236.113281 500.984955,220.627441 
	C499.626190,216.686920 498.128723,213.167023 496.982178,209.536316 
	C489.795197,186.777924 489.117737,163.500168 491.740631,139.565979 
	C493.607788,130.911789 495.037537,122.598671 497.139313,114.459068 
	C500.760406,100.435478 508.741272,88.620003 517.016724,77.009689 
	C517.016724,77.009689 517.000000,77.000305 517.297852,76.881149 
	C518.188904,75.888680 518.782166,75.015366 519.375427,74.142044 
z"/>
<path fill="#353535" opacity="1.000000" stroke="none" 
	d="
M725.324524,203.122284 
	C739.343933,193.160431 755.649658,188.514542 771.664490,183.192352 
	C774.966492,182.095001 778.269531,181.000732 782.231812,179.603760 
	C785.941528,177.570847 788.991516,175.839218 792.369934,173.972702 
	C797.364502,171.666702 800.198608,168.073273 800.532471,162.909058 
	C800.787659,158.960846 800.593323,154.983597 800.699280,150.560730 
	C800.809082,147.444351 800.983276,144.774857 800.796936,142.130798 
	C800.252625,134.410156 800.461548,126.479347 795.247437,119.532097 
	C792.080505,114.720764 787.775879,112.218529 782.554138,111.010155 
	C771.401917,108.429352 760.412354,109.379303 749.799500,113.201553 
	C746.031433,114.558624 742.882019,117.633522 738.931030,120.270721 
	C753.731934,127.865738 757.214050,136.695633 751.521606,150.706635 
	C742.642395,160.424179 730.063477,160.403015 721.283569,150.478683 
	C720.079590,145.748352 718.998657,141.373260 718.017578,136.606903 
	C718.342285,129.730331 721.627380,124.831398 726.209839,120.605042 
	C747.052002,103.704132 770.957947,100.087341 796.512390,105.075508 
	C810.003967,107.709023 819.905640,115.571068 825.580505,129.176697 
	C827.075806,139.857895 829.218140,149.877762 829.384583,159.930328 
	C829.867004,189.075119 829.537659,218.233063 829.584229,247.385757 
	C829.588989,250.370529 829.661560,253.419846 830.256042,256.326019 
	C831.647156,263.126892 836.340759,265.466553 843.264282,263.129883 
	C846.783142,261.530029 850.302002,259.930176 854.560486,257.994019 
	C855.124023,259.674194 855.789673,261.658966 855.907349,263.989899 
	C851.834351,266.754089 848.309387,269.172150 844.471191,271.657043 
	C841.115234,272.638214 838.072449,273.552551 834.618896,274.420868 
	C831.554871,274.529968 828.892700,274.908997 826.249878,274.803131 
	C811.385193,274.207550 802.567993,266.273987 801.062561,252.294647 
	C800.896667,250.754395 800.739136,249.213226 800.450134,246.453873 
	C798.486206,249.617615 797.196777,251.694763 795.604126,253.931274 
	C786.183289,265.584106 774.301025,272.320496 759.420532,274.610901 
	C757.647461,274.624084 756.329224,274.764252 755.009583,274.778564 
	C736.853882,274.975800 721.792175,269.578156 713.493225,251.421570 
	C712.540161,243.686127 711.688721,236.340668 710.940063,228.580490 
	C711.223145,226.745926 711.275818,225.295822 711.604431,223.911194 
	C713.643127,215.320419 719.351501,209.129517 725.324524,203.122284 
M739.017029,233.869293 
	C739.238342,243.401016 741.175110,252.140076 750.590332,258.174500 
	C764.151245,265.510132 780.741760,261.762726 792.559265,248.585983 
	C798.853882,242.481461 802.109009,235.382507 800.928040,226.315414 
	C800.309875,221.569504 800.818665,216.676773 800.818665,211.850357 
	C800.818665,199.955383 800.818726,188.060410 800.818726,176.632629 
	C795.316589,179.910431 790.098633,183.328110 784.599365,186.208664 
	C779.021118,189.130630 773.044983,191.291626 767.458984,194.200623 
	C759.270874,198.464798 750.830078,202.524216 745.197754,211.254745 
	C740.689575,217.811935 738.706421,225.069855 739.017029,233.869293 
z"/>
<path fill="#363636" opacity="1.000000" stroke="none" 
	d="
M266.925720,152.967270 
	C280.671387,132.230988 298.491394,126.006813 319.208099,129.788513 
	C338.423401,133.296158 351.712952,145.426620 357.280701,164.894394 
	C363.713196,187.385559 354.524658,209.383514 336.199341,220.606522 
	C312.917419,234.865097 285.071930,229.706848 269.170868,207.596588 
	C257.657104,191.586761 256.498810,173.913162 265.481262,155.971176 
	C265.925446,155.083954 266.287811,154.155777 266.925720,152.967270 
z"/>
<path fill="#353535" opacity="1.000000" stroke="none" 
	d="
M867.007385,113.983505 
	C867.007385,112.018158 867.007385,110.052811 867.007385,107.702141 
	C884.824463,108.463646 902.396240,109.609688 920.173096,103.928116 
	C920.173096,109.918282 920.173096,115.481911 920.151001,121.966858 
	C920.128845,129.268570 920.128845,135.648956 920.128845,143.295151 
	C923.483887,137.059616 926.198975,132.013474 928.914062,126.967346 
	C937.430664,115.505943 946.933167,105.466705 962.116394,103.326797 
	C976.724915,101.267883 989.254272,108.134109 994.915833,122.078613 
	C996.867920,130.113037 994.895569,136.631714 990.567383,142.869934 
	C982.825928,149.705109 975.591431,150.271393 965.876709,144.607101 
	C957.385620,135.557190 958.863403,126.951691 971.657104,113.670975 
	C968.736450,112.883362 966.371643,111.759506 963.976807,111.691284 
	C956.883240,111.489212 950.549194,113.985687 945.145813,118.496918 
	C928.169250,132.670334 920.868469,151.543015 920.271118,173.004944 
	C919.673401,194.479996 920.105896,215.984711 920.169922,237.476166 
	C920.179382,240.628616 920.418152,243.819260 920.951294,246.923431 
	C922.182068,254.088303 925.575256,259.662964 933.005920,261.912964 
	C939.826477,263.563690 946.647034,265.214417 953.878845,266.964691 
	C953.878845,268.071014 953.878845,270.017914 953.356567,272.238068 
	C948.892517,272.411804 944.950684,272.312286 940.548462,272.121948 
	C934.729431,272.003571 929.370850,271.975952 923.632690,271.804535 
	C912.164795,271.756836 901.076355,271.852936 889.531372,271.856567 
	C884.712708,271.930389 880.350586,272.096680 875.531982,272.202515 
	C872.490967,272.142059 869.906433,272.142059 867.180298,272.142059 
	C867.051086,270.243103 866.940613,268.619659 866.830200,266.996185 
	C868.657776,266.480682 870.485413,265.965179 873.062378,265.339233 
	C877.205200,264.091766 880.598511,262.954773 884.324524,261.755188 
	C889.421997,257.998962 890.834229,252.731018 890.978699,247.140427 
	C891.240845,237.002213 891.230164,226.855225 891.220337,216.712021 
	C891.194946,190.436752 891.333923,164.158020 890.920837,137.888321 
	C890.780273,128.950684 888.906738,120.192749 878.607788,116.125595 
	C874.489380,115.302429 870.748352,114.642967 867.007385,113.983505 
z"/>
<path fill="#353535" opacity="1.000000" stroke="none" 
	d="
M399.000153,329.977570 
	C394.251068,330.867401 389.501953,331.757263 384.377655,332.788879 
	C382.546936,332.803864 381.091431,332.677094 379.396057,332.529449 
	C379.396057,331.120178 379.396057,329.861053 379.396057,328.172302 
	C387.962616,327.137024 396.132599,324.703949 403.131561,318.085144 
	C406.529205,313.072998 410.024658,308.746033 412.303589,303.852539 
	C417.892090,291.852448 418.860901,278.871368 418.885895,265.852936 
	C418.963470,225.434860 418.942596,185.016464 418.865875,144.598389 
	C418.857727,140.295197 418.514618,135.947586 417.833008,131.699814 
	C416.238281,121.761414 411.396027,116.876633 401.988037,115.170494 
	C399.707306,114.814018 397.426605,114.457550 394.867523,114.057564 
	C394.867523,112.044472 394.867523,110.146126 394.867523,107.774284 
	C412.503540,108.406662 430.112366,109.635170 447.864258,103.884682 
	C447.864258,106.960022 447.864258,109.543564 447.957520,112.562675 
	C447.988953,116.365135 447.927094,119.732010 447.861084,124.008858 
	C447.849945,150.205704 448.190125,175.498856 447.732880,200.777588 
	C447.321411,223.524414 446.035248,246.255447 445.014191,269.314575 
	C444.895355,270.088348 444.897217,270.540985 444.703003,271.284058 
	C444.345367,272.718018 444.183807,273.861603 443.811646,275.312500 
	C438.892700,295.529358 429.428528,312.319366 411.606323,323.934875 
	C407.168976,326.000031 403.084564,327.988800 399.000153,329.977570 
z"/>
<path fill="#F9F9F9" opacity="1.000000" stroke="none" 
	d="
M672.164734,73.993782 
	C672.233765,68.555489 672.302856,63.117184 672.546631,57.306068 
	C678.825073,58.659843 681.207031,63.990662 681.610840,69.057205 
	C682.488770,80.073929 682.182556,91.197922 682.074036,102.275261 
	C682.014038,108.397675 681.909668,114.607704 680.861389,120.609909 
	C679.574585,127.978149 674.575195,135.640381 666.400696,133.801300 
	C662.688660,132.966171 658.142822,130.823120 656.280945,127.836166 
	C652.563477,121.872330 650.058777,115.047783 647.736084,108.342178 
	C643.500366,96.113449 637.725708,84.822563 626.344238,78.067764 
	C611.022217,68.974274 594.784668,63.932968 577.161926,72.079933 
	C565.773193,77.344963 557.335449,85.862953 550.867859,96.385963 
	C541.103210,112.273407 536.400085,129.864578 535.122375,148.252167 
	C534.132629,162.495514 533.391113,176.876923 534.230896,191.097046 
	C535.365173,210.304337 538.341980,229.363052 548.681335,246.305359 
	C551.001099,250.106552 553.488281,253.805588 555.892456,257.921204 
	C542.068054,249.502121 534.716431,236.102829 530.148499,221.048141 
	C527.757751,213.168900 526.619629,204.909576 525.352051,196.325439 
	C526.155090,194.002396 526.836670,192.172455 526.817261,190.349976 
	C526.785828,187.394608 525.940918,184.429962 526.058472,181.494049 
	C526.581604,168.433121 526.996765,155.353821 528.075623,142.332932 
	C529.288147,127.699448 533.049011,113.494545 539.956970,100.593079 
	C545.711487,89.845917 553.121216,79.984406 559.809082,69.737915 
	C563.417969,64.208740 562.880676,62.792126 556.349365,60.752617 
	C572.240967,46.778309 590.698120,44.695442 610.504150,49.201813 
	C624.269592,52.333797 636.296448,58.625557 645.864929,69.979156 
	C643.677307,74.052902 642.193726,77.415573 644.293091,81.620010 
	C649.670715,92.389893 654.783386,103.292061 660.155090,114.065010 
	C660.615845,114.989197 662.212891,115.346817 663.282104,115.967613 
	C664.320312,121.077583 667.984680,119.414970 671.808044,119.170822 
	C671.808044,115.987221 671.808044,112.942810 672.279297,109.374710 
	C673.104431,108.531143 673.698242,108.261505 673.777283,107.884064 
	C675.868347,97.899033 677.204285,87.863419 674.691345,77.762733 
	C674.347961,76.382324 673.030945,75.244118 672.164734,73.993782 
z"/>
<path fill="#F9F9F9" opacity="1.000000" stroke="none" 
	d="
M568.999451,274.973785 
	C580.590149,275.442902 592.183533,276.332153 603.770691,276.256683 
	C614.232910,276.188568 623.907410,272.426117 633.556274,267.953552 
	C634.592346,271.802551 636.924377,273.842072 640.338989,274.174377 
	C648.178711,274.937317 656.043152,275.513977 663.911072,275.831329 
	C664.896240,275.871063 665.963013,273.890778 666.992004,272.846466 
	C668.668945,272.259155 671.578491,273.280182 671.437195,269.309631 
	C672.908325,265.173126 674.777649,261.511536 674.862549,257.808990 
	C675.316345,238.009735 674.050537,218.119858 679.792358,198.731873 
	C681.167053,194.089752 678.128601,188.876907 673.946472,186.985565 
	C676.484009,182.643738 680.898743,182.361526 685.589111,181.871948 
	C691.094727,190.736053 688.605591,198.997986 684.941284,207.582123 
	C683.045959,212.022430 682.311768,217.196136 682.125488,222.079422 
	C681.719360,232.722610 682.205566,243.397476 681.921875,254.048615 
	C681.755188,260.306183 681.350098,266.653717 680.096985,272.764893 
	C677.879089,283.581787 671.034729,288.682343 660.506348,285.620575 
	C649.166992,282.323059 639.646301,285.491394 629.893494,290.043701 
	C619.818848,294.746246 609.153564,296.742767 598.092529,297.011688 
	C580.598022,297.436981 563.243347,297.151154 546.637207,290.391083 
	C531.777344,284.341797 519.057983,275.613800 508.507782,263.349823 
	C491.499329,243.578491 483.359650,220.481903 480.930389,194.918900 
	C478.553711,169.909058 479.625031,145.222214 487.854645,121.266655 
	C493.124512,105.926590 500.636810,91.756668 511.805084,79.786354 
	C512.961670,78.546661 514.774597,77.919266 516.649841,77.008728 
	C508.741272,88.620003 500.760406,100.435478 497.139313,114.459068 
	C495.037537,122.598671 493.607788,130.911789 491.393494,139.638992 
	C490.237549,141.353546 489.195862,142.505219 488.945312,143.808929 
	C485.356171,162.484131 484.990417,181.202362 487.921143,200.035339 
	C492.008759,226.302597 501.478302,249.769058 522.115417,267.595062 
	C535.218628,278.913391 549.939941,286.163208 567.798889,284.928406 
	C569.460449,284.813568 571.763184,284.146637 572.452942,282.966980 
	C572.987061,282.053528 571.524475,279.911041 570.837036,278.364899 
	C570.316406,277.193665 569.618469,276.101257 568.999451,274.973785 
z"/>
<path fill="#FBFBFB" opacity="1.000000" stroke="none" 
	d="
M866.417236,266.997192 
	C866.940613,268.619659 867.051086,270.243103 867.180298,272.142059 
	C869.906433,272.142059 872.490967,272.142059 875.533203,272.637756 
	C876.024719,284.862183 876.867004,286.243317 888.483826,287.949097 
	C895.171875,288.931152 902.040283,288.951965 908.825867,288.928925 
	C916.113464,288.904205 923.418030,288.543304 930.681030,287.927185 
	C940.398376,287.102936 943.476990,282.685608 941.093933,273.706329 
	C940.968689,273.234192 941.032898,272.711761 941.008911,272.212769 
	C944.950684,272.312286 948.892517,272.411804 953.196655,272.646118 
	C959.616028,275.558563 960.025879,286.691864 953.496582,290.432129 
	C948.512207,293.287415 942.473145,295.541504 936.816650,295.753662 
	C919.014282,296.421204 901.168762,296.152008 883.345520,295.879791 
	C879.473450,295.820648 875.381714,294.798706 871.813660,293.247986 
	C863.369873,289.578125 855.774536,289.997437 847.282593,294.080841 
	C833.323425,300.793091 818.651123,300.478302 805.315369,292.330688 
	C797.486206,287.547333 791.156006,286.924744 782.850403,291.322937 
	C764.383606,301.102112 744.898804,302.371765 725.958618,292.809082 
	C708.357300,283.922241 699.458313,269.027039 698.920471,249.040268 
	C698.504272,233.574326 702.993713,220.184799 714.217712,209.468506 
	C717.084351,206.731552 721.068604,205.165207 724.931946,203.091644 
	C719.351501,209.129517 713.643127,215.320419 711.604431,223.911194 
	C711.275818,225.295822 711.223145,226.745926 710.598572,228.649506 
	C709.116394,230.960098 707.664490,232.671356 707.116333,234.634903 
	C705.282288,241.204987 704.807861,247.747833 705.837830,254.715195 
	C709.537964,279.745331 733.628235,294.953125 757.663879,291.638000 
	C767.497253,290.281769 775.992004,286.164520 783.616882,279.939667 
	C788.739075,275.757904 794.046936,276.399445 799.278076,279.837433 
	C802.469360,281.934784 805.589172,284.141602 808.793396,286.218445 
	C819.897461,293.415466 833.934875,293.352936 843.783142,286.104370 
	C849.207458,282.112000 849.668823,275.423950 844.784424,271.590210 
	C848.309387,269.172150 851.834351,266.754089 855.683350,264.261292 
	C859.339661,265.123749 862.671997,266.061005 866.417236,266.997192 
z"/>
<path fill="#F4F4F4" opacity="1.000000" stroke="none" 
	d="
M990.886169,142.724838 
	C994.895569,136.631714 996.867920,130.113037 995.080933,122.397522 
	C995.849487,122.323959 996.904114,122.447739 997.274170,123.016701 
	C1004.782959,134.561264 1005.414368,146.047409 996.617554,157.657104 
	C988.818420,167.950241 976.346375,170.034134 965.000793,163.275925 
	C961.356750,161.105270 958.810852,157.028397 955.924927,153.683517 
	C954.976440,152.584305 954.601685,151.007980 953.857422,149.711365 
	C951.937744,146.367233 951.048584,141.769196 945.830566,142.043655 
	C940.484802,142.324875 938.773743,146.972305 937.352051,150.755264 
	C932.080383,164.782959 928.950745,179.311935 928.990723,194.408188 
	C929.024231,207.059357 929.083801,219.711487 928.969727,232.361725 
	C928.881226,242.175003 929.023926,251.919250 932.998413,261.531189 
	C925.575256,259.662964 922.182068,254.088303 920.951294,246.923431 
	C920.418152,243.819260 920.179382,240.628616 920.169922,237.476166 
	C920.105896,215.984711 919.673401,194.479996 920.271118,173.004944 
	C920.868469,151.543015 928.169250,132.670334 945.145813,118.496918 
	C950.549194,113.985687 956.883240,111.489212 963.976807,111.691284 
	C966.371643,111.759506 968.736450,112.883362 971.657104,113.670975 
	C958.863403,126.951691 957.385620,135.557190 965.866089,145.002762 
	C966.862488,151.996216 971.840454,156.294571 977.905273,155.969284 
	C984.646484,155.607727 990.783142,149.346436 990.886169,142.724838 
z"/>
<path fill="#F8F8F8" opacity="1.000000" stroke="none" 
	d="
M212.002472,275.039368 
	C216.073196,272.089600 220.143936,269.139862 224.520721,266.064026 
	C230.983978,270.581238 231.789017,276.182007 227.908691,282.704468 
	C221.471878,293.524078 204.681107,299.342407 192.246552,297.410828 
	C170.931885,294.099792 160.543900,280.087769 155.155853,261.257172 
	C149.969376,243.130981 145.976135,224.666702 141.200256,206.418579 
	C137.932770,193.933777 129.076401,187.439590 116.795761,185.143463 
	C107.907364,183.481583 100.210457,189.616837 100.074966,198.998398 
	C99.824966,216.308990 99.818192,233.629227 100.138199,250.937531 
	C100.215797,255.134430 101.959930,259.300507 102.909981,263.895477 
	C99.610077,262.479462 96.337936,260.648682 93.160782,258.110596 
	C93.170418,253.842499 93.018242,250.281815 93.011414,246.720886 
	C92.983414,232.122177 92.720032,217.515411 93.137199,202.928589 
	C93.304344,197.084198 94.056206,190.894272 96.244972,185.560501 
	C99.058838,178.703400 101.072624,172.301865 98.006226,165.169846 
	C109.426231,165.736862 120.846245,166.303879 132.578156,167.389465 
	C128.032059,174.809113 127.900909,175.845139 134.587158,181.954773 
	C141.312363,188.100037 145.890274,195.367218 148.132202,204.100494 
	C152.492081,221.084106 156.619186,238.127930 161.049286,255.092865 
	C163.671356,265.134003 167.248749,274.762665 175.399384,281.904968 
	C184.715637,290.068665 197.788940,292.031921 207.157288,286.878082 
	C212.717163,283.819427 213.651733,281.195404 212.002472,275.039368 
z"/>
<path fill="#F2F2F2" opacity="1.000000" stroke="none" 
	d="
M41.957565,53.406807 
	C53.197639,53.514362 57.826969,57.590599 59.095722,68.350533 
	C59.522903,71.973351 59.783829,75.638847 59.786938,79.285126 
	C59.832748,133.026703 59.860672,186.768417 59.756496,240.509811 
	C59.747566,245.117569 58.992977,249.762375 58.188217,254.319946 
	C57.263794,259.555267 53.967213,262.817932 48.363914,263.985474 
	C52.134453,251.684082 50.966488,238.986618 50.982838,226.403458 
	C51.037399,184.414719 50.884438,142.425293 51.084167,100.437431 
	C51.136486,89.438316 49.167530,79.544785 41.715687,70.917747 
	C37.069435,65.538742 37.180283,59.426506 41.957565,53.406807 
z"/>
<path fill="#F4F4F4" opacity="1.000000" stroke="none" 
	d="
M401.942627,115.518303 
	C411.396027,116.876633 416.238281,121.761414 417.833008,131.699814 
	C418.514618,135.947586 418.857727,140.295197 418.865875,144.598389 
	C418.942596,185.016464 418.963470,225.434860 418.885895,265.852936 
	C418.860901,278.871368 417.892090,291.852448 412.303589,303.852539 
	C410.024658,308.746033 406.529205,313.072998 403.274048,317.774231 
	C404.764221,311.039948 406.811493,304.241089 408.285553,297.320129 
	C409.277069,292.664978 409.914642,287.838623 409.929626,283.086395 
	C410.055908,242.996902 409.842072,202.905792 410.109131,162.817703 
	C410.180511,152.099564 407.831970,142.524841 401.389862,133.940643 
	C398.352539,129.893295 396.820831,125.418732 399.048523,120.448105 
	C399.777374,118.821846 400.935425,117.387970 401.942627,115.518303 
z"/>
<path fill="#FBFBFB" opacity="1.000000" stroke="none" 
	d="
M726.068054,120.286453 
	C721.627380,124.831398 718.342285,129.730331 717.661377,136.653381 
	C711.898987,140.997208 713.040955,146.754715 713.031433,152.092987 
	C713.008667,164.828964 723.503418,175.071152 736.324585,174.999878 
	C749.337769,174.927521 759.089722,165.260910 758.953979,152.272751 
	C758.886597,145.822205 758.049744,139.375244 758.083130,132.929367 
	C758.116943,126.403053 762.881348,122.155869 767.962891,123.488220 
	C783.760742,127.630356 793.061951,139.508347 792.954712,155.765106 
	C792.914368,161.881012 792.360962,167.993546 792.041504,174.107605 
	C788.991516,175.839218 785.941528,177.570847 782.531372,179.410370 
	C782.779663,177.846954 783.190186,176.067825 784.031616,174.523407 
	C787.306580,168.511826 788.775146,162.164032 787.235535,155.450134 
	C786.112915,150.554657 785.321777,145.202789 782.686096,141.160736 
	C780.743591,138.181824 776.268311,136.065414 772.547913,135.231003 
	C767.702576,134.144302 765.538635,136.581772 765.074158,142.050018 
	C764.793457,145.354462 764.798889,148.716003 765.037109,152.025894 
	C765.936890,164.524765 756.546753,176.179672 746.655823,179.571548 
	C736.248108,183.140610 721.296326,180.512726 713.124084,169.768387 
	C701.742004,154.804138 706.580505,130.390152 723.804077,119.853638 
	C724.301880,119.549103 725.209656,119.914726 726.068054,120.286453 
z"/>
<path fill="#353535" opacity="1.000000" stroke="none" 
	d="
M410.271179,43.106400 
	C413.662048,34.755386 418.945740,28.673529 428.587830,27.796501 
	C438.407043,26.903362 446.248596,32.305321 450.294067,43.351627 
	C449.637604,49.045799 448.777771,54.011745 447.625000,59.137604 
	C442.253296,66.519989 435.304108,69.481133 426.623932,68.118164 
	C420.106964,67.094872 415.806396,62.789360 412.052551,57.348381 
	C411.413910,52.353848 410.842560,47.730122 410.271179,43.106400 
z"/>
<path fill="#FBFBFB" opacity="1.000000" stroke="none" 
	d="
M883.991882,261.817810 
	C880.598511,262.954773 877.205200,264.091766 873.407471,265.175171 
	C879.827148,251.898544 879.007446,237.578552 879.001709,223.373215 
	C878.994446,205.592377 879.095520,187.810699 878.942627,170.031174 
	C878.895874,164.595108 878.199097,159.162170 877.742554,153.732635 
	C877.055054,145.555511 871.580933,140.036697 866.704773,134.240189 
	C861.529846,128.088440 861.441589,120.402504 866.849976,114.299362 
	C870.748352,114.642967 874.489380,115.302429 878.557129,116.466904 
	C872.910095,123.847557 874.879944,130.572281 879.140625,137.364594 
	C883.889038,144.934464 885.141785,153.340866 885.031738,162.140045 
	C884.616577,195.365112 884.327881,228.591751 883.991882,261.817810 
z"/>
<path fill="#F5F5F5" opacity="1.000000" stroke="none" 
	d="
M93.003197,272.067352 
	C98.705765,272.092651 104.408340,272.117981 110.566666,272.265594 
	C111.023384,272.720795 110.948204,273.075439 111.036240,273.383484 
	C115.031738,287.365112 107.526550,290.839935 94.695480,291.921448 
	C85.950371,292.658539 77.137871,293.025696 68.366417,292.883759 
	C61.454632,292.771942 54.498402,291.996338 47.672150,290.855774 
	C38.776909,289.369537 36.120533,284.127716 37.976578,272.783508 
	C43.677036,272.220703 49.376686,272.053528 55.578796,272.334839 
	C56.943661,276.583282 58.886890,279.472107 62.742737,280.796509 
	C70.500740,283.461243 78.296974,283.872131 86.102715,281.087952 
	C90.299950,279.590851 93.462425,277.183441 93.003197,272.067352 
z"/>
<path fill="#F5F5F5" opacity="1.000000" stroke="none" 
	d="
M842.951294,262.932831 
	C836.340759,265.466553 831.647156,263.126892 830.256042,256.326019 
	C829.661560,253.419846 829.588989,250.370529 829.584229,247.385757 
	C829.537659,218.233063 829.867004,189.075119 829.384583,159.930328 
	C829.218140,149.877762 827.075806,139.857895 825.824341,129.419693 
	C827.848267,131.409988 830.538818,133.503143 831.800232,136.252121 
	C836.065552,145.547501 837.973206,155.469421 837.987854,165.704681 
	C838.024658,191.367584 837.814331,217.032822 838.124146,242.692032 
	C838.206726,249.531418 838.221130,256.719513 842.951294,262.932831 
z"/>
<path fill="#F5F5F5" opacity="1.000000" stroke="none" 
	d="
M174.004791,179.597183 
	C169.441132,176.599548 164.883438,173.195969 160.163864,169.163620 
	C162.999771,166.356857 165.810760,163.841705 169.027740,162.059341 
	C182.805267,154.425812 191.800659,143.167313 195.471832,127.826683 
	C195.830170,126.329308 195.006332,124.549034 194.731232,122.900070 
	C198.084351,112.003105 199.900055,100.986259 196.961990,89.686356 
	C196.174896,86.659111 195.010559,83.729958 194.008453,80.377960 
	C196.890442,83.817673 200.894180,87.222328 202.492020,91.521210 
	C211.390579,115.462608 207.192276,137.369812 190.633881,156.775284 
	C186.902084,161.148758 182.151917,164.675095 178.585785,169.160095 
	C176.366226,171.951569 175.489929,175.811066 174.004791,179.597183 
z"/>
<path fill="#F5F5F5" opacity="1.000000" stroke="none" 
	d="
M617.985718,182.543976 
	C632.928528,182.593018 639.518433,187.755966 640.499329,202.377853 
	C641.488770,217.126709 640.979370,231.986893 640.839722,246.795578 
	C640.781433,252.971878 636.970398,257.209290 631.757690,260.676849 
	C631.620117,249.086121 631.783997,237.362152 632.008423,225.639374 
	C632.179016,216.724548 629.174255,209.297958 622.640381,203.038544 
	C613.259338,194.051453 613.403564,193.900879 617.985718,182.543976 
z"/>
<path fill="#F7F7F7" opacity="1.000000" stroke="none" 
	d="
M409.900574,43.103134 
	C410.842560,47.730122 411.413910,52.353848 411.985687,57.741600 
	C411.739197,59.783569 411.133209,61.110996 411.301422,62.331726 
	C412.834015,73.453568 423.331696,79.731232 430.960693,79.069923 
	C441.651337,78.143227 447.881561,71.903717 449.667969,61.236969 
	C449.774719,60.599453 448.532471,59.736015 447.917969,58.977699 
	C448.777771,54.011745 449.637604,49.045799 450.457550,43.645470 
	C451.855713,44.288425 453.813049,45.061405 454.650726,46.490616 
	C462.313263,59.564095 458.063477,72.310135 450.068542,80.073410 
	C439.788727,90.055321 426.148193,90.661880 414.518707,83.014175 
	C402.521912,75.124908 398.588715,58.430923 405.974915,46.232750 
	C406.755524,44.943592 408.325928,44.132671 409.900574,43.103134 
z"/>
<path fill="#434343" opacity="1.000000" stroke="none" 
	d="
M271.986969,230.840805 
	C262.188293,234.093002 252.747086,237.225708 242.078018,240.765839 
	C246.412766,228.373779 250.333755,217.164581 254.285080,205.868637 
	C261.951599,213.619202 269.263184,221.010941 276.784851,228.615097 
	C275.274567,229.331467 273.809509,230.026398 271.986969,230.840805 
z"/>
<path fill="#434343" opacity="1.000000" stroke="none" 
	d="
M319.547546,107.212692 
	C321.837585,111.958580 323.907318,116.404030 325.946259,120.783394 
	C315.015808,120.783394 304.575104,120.783394 293.405396,120.783394 
	C298.598816,110.202026 303.811737,99.580925 309.742737,87.496727 
	C313.434296,94.974831 316.380737,100.943542 319.547546,107.212692 
z"/>
<path fill="#434343" opacity="1.000000" stroke="none" 
	d="
M397.863464,180.941406 
	C388.082275,185.671951 378.596527,190.227402 368.837708,194.913986 
	C368.837708,183.812851 368.837708,173.356995 368.837708,162.420395 
	C378.632629,167.223373 388.725800,172.076904 398.713898,177.137802 
	C401.202789,178.398895 400.579071,179.890808 397.863464,180.941406 
z"/>
<path fill="#434343" opacity="1.000000" stroke="none" 
	d="
M295.539307,235.491943 
	C305.786011,235.612152 315.677673,235.612152 326.200653,235.612152 
	C320.986115,246.431396 315.858337,257.070648 310.569275,268.044556 
	C309.461121,267.294342 308.533051,267.011444 308.239868,266.415985 
	C303.625000,257.041992 299.057220,247.644073 294.611023,238.189392 
	C294.283936,237.493851 294.969513,236.322083 295.539307,235.491943 
z"/>
<path fill="#434343" opacity="1.000000" stroke="none" 
	d="
M232.751556,185.984711 
	C227.939072,183.715469 223.464661,181.608337 217.442841,178.772491 
	C229.197479,172.943619 239.843796,167.664352 250.690826,162.285553 
	C250.690826,173.191574 250.690826,183.683319 250.690826,194.743591 
	C244.832977,191.882507 238.961304,189.014664 232.751556,185.984711 
z"/>
<path fill="#434343" opacity="1.000000" stroke="none" 
	d="
M363.229309,211.090088 
	C366.227386,219.765442 368.915985,228.575150 371.545410,237.402496 
	C372.286560,239.890610 372.854218,242.430405 373.952179,246.698685 
	C361.784210,241.638596 350.858307,237.095016 340.663025,232.855270 
	C348.094208,225.628052 355.495819,218.429581 363.229309,211.090088 
z"/>
<path fill="#434343" opacity="1.000000" stroke="none" 
	d="
M256.728577,146.185303 
	C253.031189,135.659821 249.478729,125.469101 245.375916,113.699631 
	C258.073822,118.011253 269.236359,121.801537 281.511963,125.969765 
	C278.382172,128.237305 275.808380,129.609451 273.873169,131.601837 
	C269.165314,136.448746 264.796783,141.623581 260.184967,146.566910 
	C259.316864,147.497437 257.884796,150.826401 256.728577,146.185303 
z"/>
<path fill="#434343" opacity="1.000000" stroke="none" 
	d="
M343.279053,129.620575 
	C341.675903,128.520004 340.381470,127.589180 338.203217,126.022835 
	C350.275635,121.940033 361.409149,118.174767 372.542664,114.409508 
	C373.016785,114.687607 373.490906,114.965698 373.965027,115.243797 
	C370.081268,126.377197 366.197540,137.510590 363.164001,146.206711 
	C356.969666,141.012222 350.278717,135.401276 343.279053,129.620575 
z"/>
<path fill="#F5F5F5" opacity="1.000000" stroke="none" 
	d="
M211.965546,264.429321 
	C204.557083,265.527740 200.703537,263.531403 198.205215,255.695816 
	C194.680664,244.641678 192.107300,233.287720 188.952713,222.111206 
	C185.801758,210.947540 182.435760,199.844574 179.128143,188.354431 
	C180.609390,189.014343 182.559464,189.717880 183.575211,191.105392 
	C191.699799,202.203796 194.142120,215.549698 197.853027,228.361664 
	C199.870590,235.327408 200.727936,242.681625 203.257980,249.429672 
	C205.221222,254.665924 208.965714,259.234314 211.965546,264.429321 
z"/>
<path fill="#ECECEC" opacity="1.000000" stroke="none" 
	d="
M928.574402,126.934372 
	C926.198975,132.013474 923.483887,137.059616 920.128845,143.295151 
	C920.128845,135.648956 920.128845,129.268570 920.228027,122.426727 
	C922.963074,123.610657 925.598938,125.256035 928.574402,126.934372 
z"/>
<path fill="#F9F9F9" opacity="1.000000" stroke="none" 
	d="
M519.000244,74.138260 
	C518.782166,75.015366 518.188904,75.888680 517.302979,76.889755 
	C517.548523,76.056496 518.086731,75.095490 519.000244,74.138260 
z"/>
<path fill="#F5F5F5" opacity="1.000000" stroke="none" 
	d="
M444.022278,275.005188 
	C444.183807,273.861603 444.345367,272.718018 445.002991,271.254364 
	C445.864990,270.558807 446.230927,270.183289 446.596863,269.807770 
	C446.109528,269.536316 445.622223,269.264862 445.134888,268.993439 
	C446.035248,246.255447 447.321411,223.524414 447.732880,200.777588 
	C448.190125,175.498856 447.849945,150.205704 447.954956,124.458954 
	C449.368042,126.794907 451.813202,129.584381 451.828949,132.387512 
	C452.070953,175.490356 452.593353,218.606812 451.736908,261.694000 
	C451.326416,282.343475 446.818115,302.584473 434.034027,319.767670 
	C427.802216,328.143890 420.173035,335.216156 409.580200,337.540009 
	C401.628967,339.284363 398.025818,337.692444 399.000061,330.400696 
	C403.084564,327.988800 407.168976,326.000031 411.656982,324.312256 
	C413.647675,325.263641 415.847076,326.924194 416.719421,326.395416 
	C421.307251,323.614441 426.344849,320.962189 429.779083,317.008240 
	C439.443268,305.881470 443.247528,292.080475 445.492554,277.826263 
	C445.625214,276.984009 444.540497,275.949982 444.022278,275.005188 
z"/>
<path fill="#FEFEFE" opacity="1.000000" stroke="none" 
	d="
M143.105072,152.271255 
	C135.999329,154.177933 128.975327,156.538300 121.760254,157.838165 
	C116.607697,158.766449 111.198631,158.270996 105.417953,157.903961 
	C101.542465,150.879669 100.884262,143.828552 101.015633,136.662552 
	C101.298706,121.222282 101.622192,105.782410 102.021729,90.344772 
	C102.212898,82.958405 107.293213,76.283821 113.393661,75.084969 
	C124.177193,72.965805 140.456024,79.871651 146.695496,89.097115 
	C153.371216,98.967621 154.467331,110.033058 154.025665,121.513817 
	C153.666656,130.846390 151.541672,139.507523 145.662003,147.034744 
	C144.492249,148.532272 143.941345,150.513229 143.105072,152.271255 
z"/>
<path fill="#F0F0F0" opacity="1.000000" stroke="none" 
	d="
M211.601898,275.024292 
	C213.651733,281.195404 212.717163,283.819427 207.157288,286.878082 
	C197.788940,292.031921 184.715637,290.068665 175.399384,281.904968 
	C167.248749,274.762665 163.671356,265.134003 161.049286,255.092865 
	C156.619186,238.127930 152.492081,221.084106 148.132202,204.100494 
	C145.890274,195.367218 141.312363,188.100037 134.587158,181.954773 
	C127.900909,175.845139 128.032059,174.809113 132.937469,167.574799 
	C140.737778,169.798874 145.648438,175.712219 147.912750,182.875916 
	C152.500885,197.391739 156.082001,212.230621 159.909531,226.980087 
	C161.826035,234.365402 163.169647,241.900421 165.122452,249.275040 
	C171.165115,272.094879 188.416977,281.664459 211.601898,275.024292 
z"/>
<path fill="#F7F7F7" opacity="1.000000" stroke="none" 
	d="
M93.849159,58.692673 
	C96.971855,56.822296 99.903236,53.857220 103.250565,53.272240 
	C117.273468,50.821598 131.035431,52.165859 144.000488,58.633533 
	C136.156677,64.327049 136.243546,65.373413 142.731110,72.358208 
	C146.980011,76.932785 151.157196,81.754883 154.377487,87.065811 
	C160.828491,97.704895 162.190262,109.554504 161.178268,121.830215 
	C161.038025,123.531487 162.662537,125.378242 163.470062,127.157654 
	C162.163712,130.630310 160.857346,134.102982 158.895126,137.712250 
	C157.890778,136.862488 157.179642,135.848450 157.252411,134.894196 
	C157.741989,128.473495 158.695419,122.077164 158.947510,115.651314 
	C159.938828,90.384064 144.671524,73.782936 123.110809,65.596931 
	C115.826225,62.831173 109.292610,65.506050 104.214531,71.377487 
	C97.218933,79.466011 96.233620,89.314690 96.213913,98.949226 
	C96.173561,118.685547 94.302643,138.525314 97.997986,158.160645 
	C96.613907,158.242905 95.229828,158.325150 93.430840,157.832001 
	C92.676414,153.474045 92.069016,149.693283 92.043800,145.908646 
	C91.935196,129.607864 91.486969,113.283073 92.216042,97.014244 
	C92.572365,89.063095 94.614761,81.019463 97.025177,73.374329 
	C99.582573,65.263031 99.908379,64.183395 93.849159,58.692673 
z"/>
<path fill="#F9F9F9" opacity="1.000000" stroke="none" 
	d="
M98.421654,158.287872 
	C94.302643,138.525314 96.173561,118.685547 96.213913,98.949226 
	C96.233620,89.314690 97.218933,79.466011 104.214531,71.377487 
	C109.292610,65.506050 115.826225,62.831173 123.110809,65.596931 
	C144.671524,73.782936 159.938828,90.384064 158.947510,115.651314 
	C158.695419,122.077164 157.741989,128.473495 157.252411,134.894196 
	C157.179642,135.848450 157.890778,136.862488 158.606018,137.919952 
	C155.359482,144.252197 150.463257,149.138474 143.456970,152.205887 
	C143.941345,150.513229 144.492249,148.532272 145.662003,147.034744 
	C151.541672,139.507523 153.666656,130.846390 154.025665,121.513817 
	C154.467331,110.033058 153.371216,98.967621 146.695496,89.097115 
	C140.456024,79.871651 124.177193,72.965805 113.393661,75.084969 
	C107.293213,76.283821 102.212898,82.958405 102.021729,90.344772 
	C101.622192,105.782410 101.298706,121.222282 101.015633,136.662552 
	C100.884262,143.828552 101.542465,150.879669 104.962540,157.778687 
	C102.943916,158.245224 100.894615,158.330154 98.421654,158.287872 
z"/>
<path fill="#ECECEC" opacity="1.000000" stroke="none" 
	d="
M194.465347,123.115326 
	C195.006332,124.549034 195.830170,126.329308 195.471832,127.826683 
	C191.800659,143.167313 182.805267,154.425812 169.027740,162.059341 
	C165.810760,163.841705 162.999771,166.356857 159.945068,168.903336 
	C153.049652,167.295547 146.211151,165.319275 139.035858,163.245667 
	C163.235062,157.890167 184.027283,147.845291 194.465347,123.115326 
z"/>
<path fill="#F2F2F2" opacity="1.000000" stroke="none" 
	d="
M97.554993,165.094727 
	C101.072624,172.301865 99.058838,178.703400 96.244972,185.560501 
	C94.056206,190.894272 93.304344,197.084198 93.137199,202.928589 
	C92.720032,217.515411 92.983414,232.122177 93.011414,246.720886 
	C93.018242,250.281815 93.170418,253.842499 93.090797,257.774414 
	C92.000763,255.183914 90.294014,252.228058 90.272263,249.259857 
	C90.067566,221.332977 90.150650,193.403992 90.150650,165.019608 
	C92.540405,165.019608 94.822075,165.019608 97.554993,165.094727 
z"/>
<path fill="#F5F5F5" opacity="1.000000" stroke="none" 
	d="
M163.671600,126.834244 
	C162.662537,125.378242 161.038025,123.531487 161.178268,121.830215 
	C162.190262,109.554504 160.828491,97.704895 154.377487,87.065811 
	C151.157196,81.754883 146.980011,76.932785 142.731110,72.358208 
	C136.243546,65.373413 136.156677,64.327049 144.237854,58.929779 
	C147.317764,60.651619 150.028732,62.509472 152.824005,65.054718 
	C150.543854,68.911278 150.890854,71.890846 152.610443,75.439850 
	C156.574173,83.620575 159.979202,92.070724 163.721451,100.361671 
	C164.187469,101.394119 165.322433,102.124634 166.147430,102.995064 
	C165.389328,110.833656 164.631226,118.672241 163.671600,126.834244 
z"/>
<path fill="#EEEEEE" opacity="1.000000" stroke="none" 
	d="
M92.542801,271.969849 
	C93.462425,277.183441 90.299950,279.590851 86.102715,281.087952 
	C78.296974,283.872131 70.500740,283.461243 62.742737,280.796509 
	C58.886890,279.472107 56.943661,276.583282 56.039246,272.424500 
	C68.025627,272.001251 80.054008,271.936798 92.542801,271.969849 
z"/>
<path fill="#EEEEEE" opacity="1.000000" stroke="none" 
	d="
M93.544846,58.904064 
	C99.908379,64.183395 99.582573,65.263031 97.025177,73.374329 
	C94.614761,81.019463 92.572365,89.063095 92.216042,97.014244 
	C91.486969,113.283073 91.935196,129.607864 92.043800,145.908646 
	C92.069016,149.693283 92.676414,153.474045 93.028641,157.713226 
	C90.574638,159.145538 89.798042,158.164001 89.808357,155.685013 
	C89.925758,127.467918 89.863197,99.249115 90.201973,71.035011 
	C90.249817,67.050240 92.181053,63.088081 93.544846,58.904064 
z"/>
<path fill="#F0F0F0" opacity="1.000000" stroke="none" 
	d="
M166.270599,102.548981 
	C165.322433,102.124634 164.187469,101.394119 163.721451,100.361671 
	C159.979202,92.070724 156.574173,83.620575 152.610443,75.439850 
	C150.890854,71.890846 150.543854,68.911278 152.954376,65.370438 
	C161.627075,73.212517 164.414597,83.941681 165.937592,95.189903 
	C166.246704,97.472969 166.249680,99.797485 166.270599,102.548981 
z"/>
<path fill="#F4F4F4" opacity="1.000000" stroke="none" 
	d="
M568.684814,274.759827 
	C569.618469,276.101257 570.316406,277.193665 570.837036,278.364899 
	C571.524475,279.911041 572.987061,282.053528 572.452942,282.966980 
	C571.763184,284.146637 569.460449,284.813568 567.798889,284.928406 
	C549.939941,286.163208 535.218628,278.913391 522.115417,267.595062 
	C501.478302,249.769058 492.008759,226.302597 487.921143,200.035339 
	C484.990417,181.202362 485.356171,162.484131 488.945312,143.808929 
	C489.195862,142.505219 490.237549,141.353546 491.258484,140.058151 
	C489.117737,163.500168 489.795197,186.777924 496.982178,209.536316 
	C498.128723,213.167023 499.626190,216.686920 500.729126,220.850647 
	C502.694183,234.446579 509.248779,245.339798 518.276184,254.433884 
	C523.380554,259.575989 530.063293,263.256409 536.382935,267.009430 
	C537.865967,267.890167 540.756348,266.401215 542.999268,266.002472 
	C551.456238,268.850250 559.913147,271.698059 568.684814,274.759827 
z"/>
<path fill="#F0F0F0" opacity="1.000000" stroke="none" 
	d="
M556.063110,60.881073 
	C562.880676,62.792126 563.417969,64.208740 559.809082,69.737915 
	C553.121216,79.984406 545.711487,89.845917 539.956970,100.593079 
	C533.049011,113.494545 529.288147,127.699448 528.075623,142.332932 
	C526.996765,155.353821 526.581604,168.433121 526.058472,181.494049 
	C525.940918,184.429962 526.785828,187.394608 526.817261,190.349976 
	C526.836670,192.172455 526.155090,194.002396 525.405518,195.914932 
	C521.674927,175.814362 521.704285,155.529434 523.665222,135.246155 
	C525.538269,115.872749 529.862183,97.043976 540.182129,80.298225 
	C544.484680,73.316689 550.526062,67.406731 556.063110,60.881073 
z"/>
<path fill="#F4F4F4" opacity="1.000000" stroke="none" 
	d="
M673.653442,187.226242 
	C678.128601,188.876907 681.167053,194.089752 679.792358,198.731873 
	C674.050537,218.119858 675.316345,238.009735 674.862549,257.808990 
	C674.777649,261.511536 672.908325,265.173126 671.509827,268.929108 
	C671.396912,243.743973 671.605530,218.482941 671.937988,193.223557 
	C671.963318,191.298767 672.865784,189.385529 673.653442,187.226242 
z"/>
<path fill="#F2F2F2" opacity="1.000000" stroke="none" 
	d="
M666.650269,272.707550 
	C665.963013,273.890778 664.896240,275.871063 663.911072,275.831329 
	C656.043152,275.513977 648.178711,274.937317 640.338989,274.174377 
	C636.924377,273.842072 634.592346,271.802551 633.902588,267.817200 
	C637.590332,264.953064 641.329590,262.491211 645.726685,260.100281 
	C650.862427,265.696747 656.721252,265.316650 662.796997,264.008820 
	C663.967529,266.862091 665.138062,269.715363 666.650269,272.707550 
z"/>
<path fill="#F0F0F0" opacity="1.000000" stroke="none" 
	d="
M663.301819,115.538216 
	C662.212891,115.346817 660.615845,114.989197 660.155090,114.065010 
	C654.783386,103.292061 649.670715,92.389893 644.293091,81.620010 
	C642.193726,77.415573 643.677307,74.052902 645.981689,70.291916 
	C652.741211,76.125771 656.236938,84.174355 658.512878,92.722816 
	C660.474243,100.089371 661.745239,107.639725 663.301819,115.538216 
z"/>
<path fill="#ECECEC" opacity="1.000000" stroke="none" 
	d="
M542.793335,265.729431 
	C540.756348,266.401215 537.865967,267.890167 536.382935,267.009430 
	C530.063293,263.256409 523.380554,259.575989 518.276184,254.433884 
	C509.248779,245.339798 502.694183,234.446579 500.752686,221.220016 
	C508.609100,236.113281 518.119263,249.673660 532.447205,259.244568 
	C535.740784,261.444641 539.202820,263.392487 542.793335,265.729431 
z"/>
<path fill="#ECECEC" opacity="1.000000" stroke="none" 
	d="
M662.816040,263.641357 
	C656.721252,265.316650 650.862427,265.696747 646.053711,260.017670 
	C646.288635,259.290344 646.788452,258.626923 647.429810,258.156372 
	C655.976562,251.885727 659.612061,253.100937 662.816040,263.641357 
z"/>
<path fill="#F2F2F2" opacity="1.000000" stroke="none" 
	d="
M672.083130,74.456589 
	C673.030945,75.244118 674.347961,76.382324 674.691345,77.762733 
	C677.204285,87.863419 675.868347,97.899033 673.777283,107.884064 
	C673.698242,108.261505 673.104431,108.531143 672.378174,108.925606 
	C672.004395,97.639931 672.002991,86.279663 672.083130,74.456589 
z"/>
<path fill="#FDFDFD" opacity="1.000000" stroke="none" 
	d="
M791.945190,248.833450 
	C780.741760,261.762726 764.151245,265.510132 750.303894,257.535858 
	C749.783508,255.766434 749.620483,254.615372 749.304382,253.508011 
	C746.533447,243.801041 747.957703,234.917374 753.858032,226.578857 
	C759.805298,218.174179 768.236816,212.885483 776.734070,207.747971 
	C783.787659,203.483292 789.246155,205.814240 791.708557,213.683960 
	C792.487305,216.172775 792.980530,218.880417 792.931946,221.475327 
	C792.761108,230.597656 792.297607,239.714508 791.945190,248.833450 
z"/>
<path fill="#F4F4F4" opacity="1.000000" stroke="none" 
	d="
M792.252197,248.709717 
	C792.297607,239.714508 792.761108,230.597656 792.931946,221.475327 
	C792.980530,218.880417 792.487305,216.172775 791.708557,213.683960 
	C789.246155,205.814240 783.787659,203.483292 776.734070,207.747971 
	C768.236816,212.885483 759.805298,218.174179 753.858032,226.578857 
	C747.957703,234.917374 746.533447,243.801041 749.304382,253.508011 
	C749.620483,254.615372 749.783508,255.766434 750.019836,257.291626 
	C741.175110,252.140076 739.238342,243.401016 739.429810,233.367401 
	C742.541565,227.060883 745.414185,221.325409 747.777771,215.387329 
	C748.198792,214.329636 746.507507,212.431152 745.791565,210.920898 
	C750.830078,202.524216 759.270874,198.464798 767.458984,194.200623 
	C773.044983,191.291626 779.021118,189.130630 784.599365,186.208664 
	C790.098633,183.328110 795.316589,179.910431 800.818726,176.632629 
	C800.818726,188.060410 800.818665,199.955383 800.818665,211.850357 
	C800.818665,216.676773 800.309875,221.569504 800.928040,226.315414 
	C802.109009,235.382507 798.853882,242.481461 792.252197,248.709717 
z"/>
<path fill="#F5F5F5" opacity="1.000000" stroke="none" 
	d="
M844.471191,271.657043 
	C849.668823,275.423950 849.207458,282.112000 843.783142,286.104370 
	C833.934875,293.352936 819.897461,293.415466 808.793396,286.218445 
	C805.589172,284.141602 802.469360,281.934784 799.278076,279.837433 
	C794.046936,276.399445 788.739075,275.757904 783.616882,279.939667 
	C775.992004,286.164520 767.497253,290.281769 757.663879,291.638000 
	C733.628235,294.953125 709.537964,279.745331 705.837830,254.715195 
	C704.807861,247.747833 705.282288,241.204987 707.116333,234.634903 
	C707.664490,232.671356 709.116394,230.960098 710.495728,229.064240 
	C711.688721,236.340668 712.540161,243.686127 713.131470,251.608490 
	C712.674500,253.260147 712.150452,254.392914 712.329224,255.401062 
	C715.545288,273.542999 732.351196,286.972473 751.593506,284.046783 
	C758.895996,282.936432 760.134766,281.778870 759.874695,274.679382 
	C774.301025,272.320496 786.183289,265.584106 795.768433,254.325089 
	C796.888733,258.758942 796.397949,263.643066 798.421021,267.021942 
	C803.345459,275.246429 810.597656,281.634491 820.194763,283.715240 
	C828.829102,285.587158 836.174561,282.115021 835.029724,274.466858 
	C838.072449,273.552551 841.115234,272.638214 844.471191,271.657043 
z"/>
<path fill="#F7F7F7" opacity="1.000000" stroke="none" 
	d="
M792.369873,173.972702 
	C792.360962,167.993546 792.914368,161.881012 792.954712,155.765106 
	C793.061951,139.508347 783.760742,127.630356 767.962891,123.488220 
	C762.881348,122.155869 758.116943,126.403053 758.083130,132.929367 
	C758.049744,139.375244 758.886597,145.822205 758.953979,152.272751 
	C759.089722,165.260910 749.337769,174.927521 736.324585,174.999878 
	C723.503418,175.071152 713.008667,164.828964 713.031433,152.092987 
	C713.040955,146.754715 711.898987,140.997208 717.561523,137.044647 
	C718.998657,141.373260 720.079590,145.748352 720.942993,150.700623 
	C720.800659,153.484360 720.280029,155.931351 721.056274,157.854996 
	C724.093262,165.381042 732.734497,169.701614 740.124512,167.794876 
	C747.273071,165.950439 752.260559,158.591949 751.826904,150.529175 
	C757.214050,136.695633 753.731934,127.865738 738.931030,120.270721 
	C742.882019,117.633522 746.031433,114.558624 749.799500,113.201553 
	C760.412354,109.379303 771.401917,108.429352 782.554138,111.010155 
	C787.775879,112.218529 792.080505,114.720764 794.885498,119.675568 
	C790.559387,121.645294 790.388550,124.588577 791.588562,128.137924 
	C793.787781,134.642746 795.851135,141.194458 798.133362,147.669479 
	C798.574280,148.920319 799.757874,149.909424 800.598877,151.019257 
	C800.593323,154.983597 800.787659,158.960846 800.532471,162.909058 
	C800.198608,168.073273 797.364502,171.666702 792.369873,173.972702 
z"/>
<path fill="#ECECEC" opacity="1.000000" stroke="none" 
	d="
M759.420532,274.610901 
	C760.134766,281.778870 758.895996,282.936432 751.593506,284.046783 
	C732.351196,286.972473 715.545288,273.542999 712.329224,255.401062 
	C712.150452,254.392914 712.674500,253.260147 713.233093,251.998474 
	C721.792175,269.578156 736.853882,274.975800 755.009583,274.778564 
	C756.329224,274.764252 757.647461,274.624084 759.420532,274.610901 
z"/>
<path fill="#ECECEC" opacity="1.000000" stroke="none" 
	d="
M834.618896,274.420837 
	C836.174561,282.115021 828.829102,285.587158 820.194763,283.715240 
	C810.597656,281.634491 803.345459,275.246429 798.421021,267.021942 
	C796.397949,263.643066 796.888733,258.758942 796.071716,254.165710 
	C797.196777,251.694763 798.486206,249.617615 800.450134,246.453873 
	C800.739136,249.213226 800.896667,250.754395 801.062561,252.294647 
	C802.567993,266.273987 811.385193,274.207550 826.249878,274.803131 
	C828.892700,274.908997 831.554871,274.529968 834.618896,274.420837 
z"/>
<path fill="#EEEEEE" opacity="1.000000" stroke="none" 
	d="
M751.521606,150.706635 
	C752.260559,158.591949 747.273071,165.950439 740.124512,167.794876 
	C732.734497,169.701614 724.093262,165.381042 721.056274,157.854996 
	C720.280029,155.931351 720.800659,153.484360 721.066040,151.055862 
	C730.063477,160.403015 742.642395,160.424179 751.521606,150.706635 
z"/>
<path fill="#EEEEEE" opacity="1.000000" stroke="none" 
	d="
M800.699219,150.560745 
	C799.757874,149.909424 798.574280,148.920319 798.133362,147.669479 
	C795.851135,141.194458 793.787781,134.642746 791.588562,128.137924 
	C790.388550,124.588577 790.559387,121.645294 794.998535,120.005753 
	C800.461548,126.479347 800.252625,134.410156 800.796936,142.130798 
	C800.983276,144.774857 800.809082,147.444351 800.699219,150.560745 
z"/>
<path fill="#EEEEEE" opacity="1.000000" stroke="none" 
	d="
M745.494629,211.087830 
	C746.507507,212.431152 748.198792,214.329636 747.777771,215.387329 
	C745.414185,221.325409 742.541565,227.060883 739.502197,232.934998 
	C738.706421,225.069855 740.689575,217.811935 745.494629,211.087830 
z"/>
<path fill="#F5F5F5" opacity="1.000000" stroke="none" 
	d="
M884.324524,261.755188 
	C884.327881,228.591751 884.616577,195.365112 885.031738,162.140045 
	C885.141785,153.340866 883.889038,144.934464 879.140625,137.364594 
	C874.879944,130.572281 872.910095,123.847557 878.934570,116.630600 
	C888.906738,120.192749 890.780273,128.950684 890.920837,137.888321 
	C891.333923,164.158020 891.194946,190.436752 891.220337,216.712021 
	C891.230164,226.855225 891.240845,237.002213 890.978699,247.140427 
	C890.834229,252.731018 889.421997,257.998962 884.324524,261.755188 
z"/>
<path fill="#F4F4F4" opacity="1.000000" stroke="none" 
	d="
M940.548462,272.121948 
	C941.032898,272.711761 940.968689,273.234192 941.093933,273.706329 
	C943.476990,282.685608 940.398376,287.102936 930.681030,287.927185 
	C923.418030,288.543304 916.113464,288.904205 908.825867,288.928925 
	C902.040283,288.951965 895.171875,288.931152 888.483826,287.949097 
	C876.867004,286.243317 876.024719,284.862183 875.989746,272.698181 
	C880.350586,272.096680 884.712708,271.930389 889.568115,272.217041 
	C892.409363,274.956665 894.373840,278.309723 897.181152,279.319244 
	C904.102417,281.808167 911.340515,281.188232 918.429565,279.056793 
	C922.071472,277.961792 924.040344,275.802551 924.012207,271.948334 
	C929.370850,271.975952 934.729431,272.003571 940.548462,272.121948 
z"/>
<path fill="#ECECEC" opacity="1.000000" stroke="none" 
	d="
M923.632690,271.804535 
	C924.040344,275.802551 922.071472,277.961792 918.429565,279.056793 
	C911.340515,281.188232 904.102417,281.808167 897.181152,279.319244 
	C894.373840,278.309723 892.409363,274.956665 890.024658,272.309509 
	C901.076355,271.852936 912.164795,271.756836 923.632690,271.804535 
z"/>
<path fill="#ECECEC" opacity="1.000000" stroke="none" 
	d="
M990.567383,142.869934 
	C990.783142,149.346436 984.646484,155.607727 977.905273,155.969284 
	C971.840454,156.294571 966.862488,151.996216 966.024841,145.305984 
	C975.591431,150.271393 982.825928,149.705109 990.567383,142.869934 
z"/>
<path fill="#ECECEC" opacity="1.000000" stroke="none" 
	d="
M443.811615,275.312500 
	C444.540497,275.949982 445.625214,276.984009 445.492554,277.826263 
	C443.247528,292.080475 439.443268,305.881470 429.779083,317.008240 
	C426.344849,320.962189 421.307251,323.614441 416.719421,326.395416 
	C415.847076,326.924194 413.647675,325.263641 412.009949,324.235901 
	C429.428528,312.319366 438.892700,295.529358 443.811615,275.312500 
z"/>
<path fill="#ECECEC" opacity="1.000000" stroke="none" 
	d="
M445.014191,269.314575 
	C445.622223,269.264862 446.109528,269.536316 446.596863,269.807770 
	C446.230927,270.183289 445.864990,270.558807 445.199097,270.963989 
	C444.897217,270.540985 444.895355,270.088348 445.014191,269.314575 
z"/>
<path fill="#ECECEC" opacity="1.000000" stroke="none" 
	d="
M447.624969,59.137611 
	C448.532471,59.736015 449.774719,60.599453 449.667969,61.236969 
	C447.881561,71.903717 441.651337,78.143227 430.960693,79.069923 
	C423.331696,79.731232 412.834015,73.453568 411.301422,62.331726 
	C411.133209,61.110996 411.739197,59.783569 412.052917,58.112411 
	C415.806396,62.789360 420.106964,67.094872 426.623932,68.118164 
	C435.304108,69.481133 442.253296,66.519989 447.624969,59.137611 
z"/>
</svg>